<?xml version="1.0" encoding="utf-8"?>
<!-- Generator: Adobe Illustrator 16.0.0, SVG Export Plug-In . SVG Version: 6.00 Build 0)  -->
<!DOCTYPE svg PUBLIC "-//W3C//DTD SVG 1.1//EN" "http://www.w3.org/Graphics/SVG/1.1/DTD/svg11.dtd">
<svg version="1.1" id="Layer_1" xmlns="http://www.w3.org/2000/svg" xmlns:xlink="http://www.w3.org/1999/xlink" x="0px" y="0px"
	 width="422.147px" height="85.04px" viewBox="0 0 422.147 85.04" enable-background="new 0 0 422.147 85.04" xml:space="preserve">
<g>
	<path fill="#FFFFFF" d="M409.898,61.331c-3.541,2.229-4.141,2.65-4.824-0.633c-0.439-2.625,2.209-22.262-14.912-22.943
		c-13.721-0.936-18.355,10.957-19.285,18.738c-0.52,3.303-0.176,5.705-0.176,5.705c-1.145,2.617-3.078,2.494-5.023,2.088
		c-2.846-0.582-1.945-6.783-2.943-8.684c-1.35-2.588-4.334-4.195-4.334-4.195s6.496-2.059,7.668-5.66
		c1.998-6.26-0.521-11.223-7.357-11.223c-6.566,0-10.09,4.066-10.09,4.066s7.785-13.514,9.119-18.184
		c1.471-5.117-2.26-10.957-8.08-10.957c-5.652,0-9.486,3.871-10.639,8.6c-1.52,6.244-1.324,33.484-1.324,33.484
		s-5.039,9.076-6.193,8.881c-2.523,1.098-2.49-1.941-2.49-1.941s-1.258-6.324-1.635-8.83c-0.215-3.406-2.719-8.645-6.295-10.217
		c-4.559-1.998-9.135,0.715-9.135,0.715s8.656-13.039,10.266-19.652c1.617-6.633-3.303-10.734-8.324-10.996
		c-5.422-0.453-9.246,3.916-10.408,7.729c-1.486,3.826-1.422,28.902-1.422,28.902s-13.688,18.43-22.344,19.238
		c-5.051,0.654-11.967-1.635-8.725-13.098c4.332-10.887,15.941-6.047,15.941-6.047s3.875,0.945,5.26-1.639
		c1.398-2.59-1.857-5.107-1.857-5.107s-1.832-1.982-9.289-1.982c-16.111,0.746-18.467,16.193-18.467,16.193l-4.432,3.545
		l-5.557-9.848c0,0,7.244-10.709-3.615-10.709c-9.91,0-4.643,10.311-4.643,10.311L230.38,63.298c0,0-0.639,0.738-2.141,1.186
		c-2.125,0-3.205-1.291-3.484-2.863c-0.328-1.568,0-17.826,0-18.836c0-1.012-0.492-4.293-4.373-4.293
		c-3.379,0-4.326,3.324-4.326,4.326c0,1.021,0.025,15.371,0,17.014c0,1.648-1.635,4.941-5.561,4.941
		c-3.396,0-4.855-2.406-4.855-4.182c0-1.764,0-17.807,0-17.807s-0.408-4.293-4.367-4.293c-4.382,0-4.382,4.293-4.382,4.293
		s0.03,15.52,0,17.914c-0.025,2.396-2.226,3.93-4.531,3.855c-2.738-0.07-3.059-3.496-3.059-3.496l-1.815-11.414
		c0,0-1.644-9.674-8.376-10.928c-6.274-1.127-11.179,3.588-11.179,3.588s-3.076-4.176-8.834-4.283
		c-5.755-0.119-8.833,4.283-8.833,4.283s-3.039-3.713-8.236-3.713c-9.3-0.863-11.427,10.604-11.427,10.604
		s-2.261,12.756-2.71,14.146c-0.438,1.41-3.45,2.299-4.493,1.914c-1.041-0.395-1.654-1.113-1.9-2.625
		c0.572-1.719,3.361-25.398-15.747-24.914c-14.932,0.961-17.172,13.951-17.482,18.076c-0.311,4.318,0.032,7.711,0.032,7.711
		s-2.356,2.004-4.237,2.004c-2.353,0-2.941-4.744-2.941-4.744l-1.292-11.119c0,0-1.089-7.596-7.033-10.549
		c-6.504-3.23-12.757,2.787-12.757,2.787s-1.44-4.453-7.669-5.539c-7.948-0.814-10.221,3.783-10.221,3.783
		s-1.966-5.719-12.808-4.807c-6.295,1.191-8.724,5.592-9.828,8.023c-2.241,5.533,0.115,23.17-2.336,20.799
		c-0.928-0.367-5.513-2.953-7.459,1.535c-3.055,7.168,5.822,8.9,8.423,8.441c5.175,0,8.383-3.168,8.665-7.621
		c0.397-6.314-0.537-15.512,0.965-19.793c0.802-2.025,2.524-3.34,4.463-3.34c3.995,0,5.218,2.977,5.218,5.656
		c0,3.428,0,20.365,0,20.365s-0.306,3.98,4.081,3.98c4.653,0,4.508-3.98,4.508-3.98s-0.278-17.688,0-19.615
		c0.279-1.945,0.866-4.527,4.716-4.527c4.261,0,4.523,4.557,4.523,4.557l0.034,19.582c0,0,0.518,4.232,4.467,3.979
		c4.428-0.225,4.265-4.213,4.265-4.213s-0.343-17.539,0-19.504c0.358-1.936,1.699-3.49,3.253-3.49c1.873,0,3.968,2.104,3.968,3.49
		c0.284,1.676,2.196,15.387,3.084,17.656c1.25,3.172,4.119,6.184,9.302,6.066c5.201-0.117,8.468-3.514,8.468-3.514
		s4.402,3.98,11.662,3.98c7.266,0,11.825-3.98,11.825-3.98s2.568,2.961,8.001,3.514c7.176,0.568,11.282-4.494,12.217-6.547
		c0.914-2.068,2.956-16.357,3.242-17.176c0.306-0.813,0.648-3.164,3.494-3.49c2.093-0.232,3.351,3.127,3.515,4.449
		c0.164,1.299-0.034,18.783-0.034,18.783s-0.065,3.523,4.22,3.523c4.311,0,4.491-3.523,4.491-3.523V49.644
		c0,0,0.497-3.391,4.087-3.475c4.18-0.098,4.685,3.475,4.685,3.475v19.742c0,0-0.045,3.756,4.404,3.5c3.922,0,4.269-3.5,4.269-3.5
		V49.644c0,0,0.255-3.49,3.827-3.426c2.546,0.705,3.12,2.25,3.392,3.426c0.237,1.195,2.509,15.678,2.723,16.809
		c0.359,1.01,1.862,5.752,8.569,6.434c6.714,0,10.212-3.033,10.212-3.033s2.511,3.396,8.393,3.514
		c5.873,0.117,11.406-3.514,11.406-3.514s4.332,3.033,7.113,3.033c3.859,0.48,7.24-2.863,7.24-2.863l12.824-14.992
		c0,0,3.959,3.914,3.09,7.451c-0.479,3.158-3.27,0.67-6.082,1.457c-1.26,0.406-5.02,1.896-3.063,6.271
		c1.51,3.23,5.678,3.273,7.955,3.156c4.551-0.627,8.199-4.844,9.205-7.43c0.918-1.68,3.646-3.762,3.646-3.762s2.42,7.207,7.311,9.34
		c3.574,1.816,6.621,2.566,14.08,0.988c7.439-1.582,18.021-13.73,18.021-13.73l-0.016,11.08c0,0,0.895,3.514,4.457,3.514
		c3.9,0,4.553-3.514,4.553-3.514l-0.047-20.447c0,0-0.295-3.188,2.842-3.188c4.156,0,5.006,3.529,5.006,3.529l2.699,16.705
		c0,0,1.734,5.666,7.035,5.666c3.238-0.025,9.107-9.287,9.107-9.287v7.021c0,0,0.531,3.631,4.203,3.514
		c4.055-0.086,4.742-3.514,4.742-3.514s0-11.404,0-12.684c0-1.877,8.912-2.727,9.078,3.828c0.346,4.643,1.715,9.475,6.141,11.096
		c6.205,2.025,13-2.568,13-2.568s4.396,4.25,11.555,4.25c7.582,0.598,12.844-4.512,12.844-4.512s5.063,6.426,12.997,2.041
		C419.534,67.247,414,59.229,409.898,61.331z M103.607,65.987c-11.171,0.191-10.093-20.469,2.306-21.072
		C116.148,44.405,117.884,65.728,103.607,65.987z M310.466,29.356c0,0-0.717-12.879,3.041-11.709
		C317.416,18.864,310.466,29.356,310.466,29.356z M345.505,29.356c0,0-0.762-12.732,3.057-11.709
		C352.234,18.638,345.726,29.022,345.505,29.356z M353.117,46.618c-1.74,0-4.922,0.83-4.922,0.83s9.516-10.291,10.799-4.803
		C359.482,44.784,355.39,46.618,353.117,46.618z M387.632,65.712c-14.391,1.078-9.314-21.625,1.439-20.797
		C398.962,45.659,400.437,64.751,387.632,65.712z"/>
</g>
</svg>
